<?xml version="1.0" standalone="no"?><!DOCTYPE svg PUBLIC "-//W3C//DTD SVG 1.1//EN" "http://www.w3.org/Graphics/SVG/1.1/DTD/svg11.dtd"><svg t="1652041012610" class="icon" viewBox="0 0 1024 1024" version="1.1" xmlns="http://www.w3.org/2000/svg" p-id="2007" xmlns:xlink="http://www.w3.org/1999/xlink" width="200" height="200"><defs><style type="text/css"></style></defs><path d="M952.335876 1018.046512H161.061705a44.651163 44.651163 0 0 1-44.651162-44.651163V46.635659A44.651163 44.651163 0 0 1 161.061705 1.984496h791.274171a44.651163 44.651163 0 0 1 44.651163 44.651163v926.75969a44.651163 44.651163 0 0 1-44.651163 44.651163z" fill="#FF5E5B" p-id="2008"></path><path d="M952.335876 1.984496H556.690853v1016.062016h395.629147a44.651163 44.651163 0 0 0 44.659101-44.651163V46.635659A44.651163 44.651163 0 0 0 952.335876 1.984496z" fill="#FF423D" p-id="2009"></path><path d="M768.738233 715.323535L651.10524 511.539597l-53.398821 92.509271a44.651163 44.651163 0 0 1-77.339783 0l-25.6-44.333643-89.842109 155.600372a44.651163 44.651163 0 0 1-38.657984 22.32955h-60.281055a44.651163 44.651163 0 0 1-44.651162-44.6591V191.56738a44.651163 44.651163 0 0 1 44.651162-44.651163h501.426605a44.651163 44.651163 0 0 1 44.651163 44.651163v501.434542c0 45.778357-60.606512 61.670202-83.325023 22.329551z" fill="#48AEE2" p-id="2010"></path><path d="M807.412093 146.908279H556.698791V626.306977c0.777922 0.03969 1.547907 0.07938 2.333767 0.07938a44.651163 44.651163 0 0 0 38.673861-22.329551l53.398821-92.509271 117.640931 203.783938c22.758202 39.412093 83.317085 23.385302 83.317085-22.329551V191.559442a44.651163 44.651163 0 0 0-44.651163-44.651163z" fill="#39A3DB" p-id="2011"></path><path d="M846.085953 670.672372l-156.31479-270.764651c-17.177798-29.751566-60.185798-29.703938-77.339783 0l-55.732589 96.549705v170.507907l27.933767 48.36614c17.177798 29.743628 31.410605 22.321612 222.779535 22.321612 34.355597-0.007938 55.811969-37.284713 38.67386-66.980713z" fill="#1DA49C" p-id="2012"></path><path d="M391.977674 434.501457c-72.910388 0-130.659225-51.739783-130.659224-84.761798V205.363597c0-26.608124 31.62493-58.471194 58.463255-58.471194h144.384c31.966264 0 84.761798 56.653395 84.761799 130.659225 0 86.539907-70.409922 156.949829-156.957768 156.949829z" fill="#F2C500" p-id="2013"></path><path d="M623.298481 737.645147H366.258605c-34.355597 0-55.819907-37.276775-38.665923-66.980713L456.092775 448.099225c17.177798-29.751566 60.185798-29.703938 77.339783 0l128.531845 222.557271c17.185736 29.759504-4.365891 66.988651-38.665922 66.988651z" fill="#65C6BB" p-id="2014"></path><path d="M807.420031 885.577426h-501.442481a44.651163 44.651163 0 0 1 0-89.302325h501.442481a44.651163 44.651163 0 0 1 0 89.302325z" fill="#F2C500" p-id="2015"></path><path d="M161.061705 236.202667H71.656186a44.651163 44.651163 0 0 1 0-89.302326H161.061705a44.651163 44.651163 0 0 1 0 89.302326zM161.061705 448.512H71.656186a44.651163 44.651163 0 0 1 0-89.302326H161.061705a44.651163 44.651163 0 0 1 0 89.302326zM161.061705 660.821333H71.656186a44.651163 44.651163 0 0 1 0-89.302325H161.061705a44.651163 44.651163 0 0 1 0 89.302325zM161.061705 873.130667H71.656186a44.651163 44.651163 0 0 1 0-89.302326H161.061705a44.651163 44.651163 0 0 1 0 89.302326z" fill="#FF423D" p-id="2016"></path><path d="M668.497364 348.366388h-55.423007a44.651163 44.651163 0 0 1 0-89.302326h55.423007a44.651163 44.651163 0 0 1 0 89.302326z" fill="#D1D3D4" p-id="2017"></path><path d="M661.964403 670.664434L556.698791 488.376558v249.268589h66.59969c34.363535 0 55.819907-37.284713 38.665922-66.980713z" fill="#57BDB7" p-id="2018"></path><path d="M807.420031 796.275101H556.698791v89.302325h250.72124a44.651163 44.651163 0 0 0 0-89.302325z" fill="#F59D00" p-id="2019"></path></svg>